<mxfile host="app.diagrams.net" modified="2023-04-21T05:56:16.063Z" agent="Mozilla/5.0 (Windows NT 10.0; Win64; x64) AppleWebKit/537.36 (KHTML, like Gecko) Chrome/112.0.0.0 Safari/537.36 Edg/112.0.1722.48" etag="NGFVIWQ4UyHd0zDaCiij" version="21.2.1" type="github">
  <diagram name="第 1 页" id="9Oa7D7Z686wXctlU1QM4">
    <mxGraphModel dx="1142" dy="662" grid="1" gridSize="10" guides="1" tooltips="1" connect="1" arrows="1" fold="1" page="1" pageScale="1" pageWidth="827" pageHeight="1169" math="0" shadow="0">
      <root>
        <mxCell id="0" />
        <mxCell id="1" parent="0" />
        <mxCell id="NsO2TXA-qfAiBjZMFbSb-2" value="容器1" style="rounded=1;whiteSpace=wrap;html=1;fillColor=#f5f5f5;fontColor=#333333;strokeColor=#666666;" vertex="1" parent="1">
          <mxGeometry x="120" y="160" width="80" height="40" as="geometry" />
        </mxCell>
        <mxCell id="NsO2TXA-qfAiBjZMFbSb-12" style="rounded=0;orthogonalLoop=1;jettySize=auto;html=1;exitX=0;exitY=1;exitDx=0;exitDy=0;entryX=0;entryY=0;entryDx=0;entryDy=0;" edge="1" parent="1" source="NsO2TXA-qfAiBjZMFbSb-6" target="NsO2TXA-qfAiBjZMFbSb-7">
          <mxGeometry relative="1" as="geometry" />
        </mxCell>
        <mxCell id="NsO2TXA-qfAiBjZMFbSb-13" style="rounded=0;orthogonalLoop=1;jettySize=auto;html=1;exitX=1;exitY=1;exitDx=0;exitDy=0;entryX=1;entryY=0;entryDx=0;entryDy=0;" edge="1" parent="1" source="NsO2TXA-qfAiBjZMFbSb-6" target="NsO2TXA-qfAiBjZMFbSb-7">
          <mxGeometry relative="1" as="geometry" />
        </mxCell>
        <mxCell id="NsO2TXA-qfAiBjZMFbSb-6" value="页表1" style="rounded=0;whiteSpace=wrap;html=1;fillColor=#f5f5f5;fontColor=#333333;strokeColor=#666666;" vertex="1" parent="1">
          <mxGeometry x="120" y="220" width="80" height="140" as="geometry" />
        </mxCell>
        <mxCell id="NsO2TXA-qfAiBjZMFbSb-7" value="TTBR（页表基址寄存器）" style="rounded=0;whiteSpace=wrap;html=1;fillColor=#f5f5f5;fontColor=#333333;strokeColor=#666666;" vertex="1" parent="1">
          <mxGeometry x="240" y="440" width="160" height="40" as="geometry" />
        </mxCell>
        <mxCell id="NsO2TXA-qfAiBjZMFbSb-8" value="容器2" style="rounded=1;whiteSpace=wrap;html=1;fillColor=#dae8fc;strokeColor=#6c8ebf;" vertex="1" parent="1">
          <mxGeometry x="280" y="160" width="80" height="40" as="geometry" />
        </mxCell>
        <mxCell id="NsO2TXA-qfAiBjZMFbSb-9" value="页表2" style="rounded=0;whiteSpace=wrap;html=1;fillColor=#dae8fc;strokeColor=#6c8ebf;" vertex="1" parent="1">
          <mxGeometry x="280" y="220" width="80" height="140" as="geometry" />
        </mxCell>
        <mxCell id="NsO2TXA-qfAiBjZMFbSb-10" value="容器3" style="rounded=1;whiteSpace=wrap;html=1;" vertex="1" parent="1">
          <mxGeometry x="440" y="160" width="80" height="40" as="geometry" />
        </mxCell>
        <mxCell id="NsO2TXA-qfAiBjZMFbSb-16" style="rounded=0;orthogonalLoop=1;jettySize=auto;html=1;exitX=1;exitY=1;exitDx=0;exitDy=0;entryX=1;entryY=0;entryDx=0;entryDy=0;" edge="1" parent="1" source="NsO2TXA-qfAiBjZMFbSb-11" target="NsO2TXA-qfAiBjZMFbSb-7">
          <mxGeometry relative="1" as="geometry">
            <mxPoint x="400" y="440" as="targetPoint" />
          </mxGeometry>
        </mxCell>
        <mxCell id="NsO2TXA-qfAiBjZMFbSb-17" style="rounded=0;orthogonalLoop=1;jettySize=auto;html=1;exitX=0;exitY=1;exitDx=0;exitDy=0;entryX=0;entryY=0;entryDx=0;entryDy=0;" edge="1" parent="1" source="NsO2TXA-qfAiBjZMFbSb-11" target="NsO2TXA-qfAiBjZMFbSb-7">
          <mxGeometry relative="1" as="geometry" />
        </mxCell>
        <mxCell id="NsO2TXA-qfAiBjZMFbSb-11" value="页表3" style="rounded=0;whiteSpace=wrap;html=1;" vertex="1" parent="1">
          <mxGeometry x="440" y="220" width="80" height="140" as="geometry" />
        </mxCell>
        <mxCell id="NsO2TXA-qfAiBjZMFbSb-20" style="rounded=0;orthogonalLoop=1;jettySize=auto;html=1;exitX=1;exitY=1;exitDx=0;exitDy=0;entryX=1;entryY=0;entryDx=0;entryDy=0;" edge="1" parent="1">
          <mxGeometry relative="1" as="geometry">
            <mxPoint x="360" y="360" as="sourcePoint" />
            <mxPoint x="400" y="440" as="targetPoint" />
          </mxGeometry>
        </mxCell>
        <mxCell id="NsO2TXA-qfAiBjZMFbSb-21" style="rounded=0;orthogonalLoop=1;jettySize=auto;html=1;exitX=0;exitY=1;exitDx=0;exitDy=0;entryX=0;entryY=0;entryDx=0;entryDy=0;" edge="1" parent="1">
          <mxGeometry relative="1" as="geometry">
            <mxPoint x="280" y="360" as="sourcePoint" />
            <mxPoint x="240" y="440" as="targetPoint" />
          </mxGeometry>
        </mxCell>
      </root>
    </mxGraphModel>
  </diagram>
</mxfile>
